<?xml version="1.0" standalone="no"?>
<!DOCTYPE svg PUBLIC "-//W3C//DTD SVG 20010904//EN"
 "http://www.w3.org/TR/2001/REC-SVG-20010904/DTD/svg10.dtd">
<svg version="1.0" xmlns="http://www.w3.org/2000/svg"
 width="1157.000000pt" height="1157.000000pt" viewBox="0 0 1157.000000 1157.000000"
 preserveAspectRatio="xMidYMid meet">

<g transform="translate(0.000000,1157.000000) scale(0.100000,-0.100000)"
fill="#000000" stroke="none">
<path d="M4410 10779 c-279 -43 -490 -216 -600 -493 -110 -278 -111 -628 -3
-986 92 -307 241 -606 485 -978 141 -212 142 -177 -15 -303 -102 -82 -252
-187 -396 -276 l-84 -52 -41 52 c-306 392 -471 558 -711 719 -178 118 -391
205 -617 250 -162 32 -437 32 -587 0 -376 -82 -635 -273 -748 -554 -58 -144
-68 -376 -23 -523 52 -167 169 -326 316 -431 212 -152 516 -223 832 -196 334
29 610 94 956 224 153 58 159 59 176 41 9 -10 246 -331 525 -713 279 -382 511
-700 516 -705 10 -14 -590 -401 -899 -580 l-82 -48 -77 84 c-42 46 -113 119
-157 163 -309 300 -697 509 -1087 588 -97 19 -146 23 -324 23 -188 0 -219 -2
-298 -23 -316 -84 -524 -262 -619 -532 -12 -35 -22 -94 -25 -160 -7 -145 13
-247 72 -368 115 -233 351 -384 681 -438 131 -22 374 -24 514 -5 321 44 728
190 1157 416 l123 65 42 -58 c165 -222 323 -525 397 -762 49 -157 61 -211 48
-215 -7 -2 -52 -6 -102 -10 -366 -26 -829 -178 -1115 -365 -186 -122 -367
-335 -452 -532 -61 -143 -82 -241 -81 -388 2 -198 52 -348 164 -488 260 -326
768 -348 1187 -52 303 214 519 629 583 1120 14 110 17 367 6 490 l-8 86 73 -3
c273 -12 539 -71 788 -175 138 -58 339 -161 438 -225 100 -64 252 -175 252
-183 -1 -3 -17 -23 -36 -45 -259 -293 -412 -528 -532 -816 -128 -309 -154
-583 -82 -865 42 -163 117 -304 224 -420 119 -129 245 -205 401 -240 103 -23
189 -21 297 5 298 71 523 316 615 670 31 119 42 340 24 458 -60 378 -273 790
-600 1161 -46 52 -81 95 -79 96 1 1 30 23 64 48 125 95 284 192 449 273 261
128 432 187 661 225 112 19 359 41 375 34 3 -2 2 -29 -2 -61 -13 -106 -10
-407 6 -530 39 -298 143 -587 288 -802 248 -368 691 -571 1072 -492 155 32
278 101 376 210 232 257 262 619 81 976 -177 351 -510 585 -1052 740 -146 42
-364 82 -497 91 -51 4 -93 11 -93 17 0 35 74 277 117 382 61 150 185 371 301
537 l74 107 207 -104 c113 -57 258 -125 321 -153 238 -102 516 -187 720 -218
149 -23 406 -23 545 0 472 77 755 361 756 754 0 213 -73 378 -235 529 -124
116 -262 183 -457 224 -93 19 -125 21 -294 16 -149 -5 -215 -11 -305 -31 -168
-36 -316 -88 -475 -165 -282 -139 -531 -333 -757 -590 l-65 -74 -149 88 c-235
139 -834 521 -834 531 0 4 1036 1422 1050 1438 5 5 80 -18 172 -53 606 -227
1131 -285 1507 -166 285 91 505 297 587 550 36 109 45 306 19 421 -33 149 -91
257 -201 373 -207 220 -554 343 -924 328 -386 -16 -717 -144 -1035 -400 -147
-118 -410 -408 -546 -600 l-32 -46 -36 21 c-122 72 -372 247 -468 326 -62 51
-113 95 -113 97 0 2 56 89 124 192 410 621 594 1143 557 1576 -24 281 -89 462
-225 630 -148 180 -418 281 -663 248 -390 -54 -652 -369 -703 -846 -21 -192
12 -498 80 -740 101 -359 304 -715 567 -996 l74 -80 -67 -87 c-142 -182 -342
-420 -498 -592 -110 -120 -530 -540 -541 -540 -19 0 -511 506 -670 688 -142
163 -372 447 -412 509 -15 22 -13 26 54 101 118 132 170 199 259 333 271 410
423 948 386 1371 -38 446 -248 753 -582 853 -96 29 -233 39 -330 24z m258
-154 c164 -39 313 -159 401 -325 219 -411 116 -1123 -244 -1682 -87 -135 -281
-368 -306 -368 -6 0 -56 71 -113 158 -297 452 -457 812 -517 1162 -29 170 -23
387 15 533 88 342 308 534 616 536 47 0 113 -6 148 -14z m2367 0 c323 -82 505
-380 505 -828 0 -195 -31 -357 -109 -575 -98 -272 -224 -512 -444 -846 l-92
-138 -68 73 c-322 346 -535 807 -588 1268 -18 161 -7 393 24 514 72 274 243
467 467 528 82 22 226 24 305 4z m-4965 -2239 c337 -61 758 -400 1138 -917
l41 -57 -132 -50 c-332 -125 -621 -192 -915 -211 -199 -14 -305 -3 -472 46
-314 93 -520 322 -546 606 -25 284 168 508 501 582 78 17 290 18 385 1z m7720
-15 c334 -98 500 -364 420 -676 -29 -114 -79 -196 -179 -295 -174 -172 -407
-254 -717 -252 -178 1 -378 28 -579 77 -171 42 -506 153 -554 184 -18 12 -14
18 103 166 325 409 656 685 938 779 114 39 168 45 338 42 123 -3 171 -8 230
-25z m-5101 -591 c193 -242 461 -538 729 -804 l180 -179 -102 -91 c-201 -181
-603 -509 -617 -504 -9 4 -999 1358 -999 1367 0 3 61 44 136 91 149 94 312
212 417 302 l68 59 56 -73 c31 -40 91 -116 132 -168z m2445 59 c43 -32 151
-106 241 -165 l162 -106 -500 -684 c-274 -376 -502 -684 -506 -684 -16 0 -461
370 -661 548 l-55 50 226 228 c328 331 523 549 749 839 l121 154 72 -60 c40
-34 107 -87 151 -120z m-1187 -1350 c92 -80 241 -205 331 -277 90 -72 163
-134 164 -137 0 -4 -165 -233 -367 -510 l-368 -504 -27 37 c-15 20 -180 248
-368 505 -188 257 -342 471 -341 475 0 4 41 39 92 77 123 95 354 287 512 428
l130 116 37 -32 c20 -18 113 -98 205 -178z m-3970 -555 c335 -49 649 -189 928
-413 95 -75 269 -243 336 -323 l40 -47 -213 -105 c-511 -252 -864 -356 -1208
-356 -528 1 -839 196 -892 560 -48 324 205 614 595 685 100 18 290 18 414 -1z
m7866 1 c106 -18 162 -37 250 -81 140 -70 247 -175 306 -299 43 -90 55 -154
48 -264 -9 -159 -65 -281 -176 -383 -78 -72 -153 -115 -270 -154 -128 -44
-263 -64 -441 -64 -287 0 -557 65 -930 223 -170 73 -482 229 -488 245 -5 16
291 310 383 379 254 191 509 314 773 373 189 42 395 51 545 25z m-2578 -425
c116 -74 308 -193 427 -265 120 -71 217 -132 218 -135 0 -3 -48 -77 -106 -165
-181 -275 -342 -631 -384 -851 -7 -34 -15 -65 -19 -71 -3 -5 -81 -15 -174 -21
-272 -20 -474 -65 -712 -160 -260 -104 -518 -246 -715 -394 -50 -38 -92 -68
-95 -68 -3 0 -33 22 -68 49 -112 87 -303 207 -444 279 -368 187 -648 268
-1012 294 l-168 12 -23 95 c-69 289 -219 608 -427 905 -34 50 -60 93 -58 97 3
3 48 32 102 64 153 91 532 328 707 442 87 57 164 102 170 100 6 -3 283 -376
614 -831 332 -454 607 -826 610 -825 4 0 281 375 615 834 l609 835 61 -42 c34
-23 157 -103 272 -178z m-3371 -1659 c3 -5 10 -75 15 -156 33 -530 -128 -1030
-424 -1314 -94 -90 -158 -134 -278 -192 -126 -60 -221 -81 -362 -82 -106 -1
-129 2 -200 27 -103 35 -160 72 -235 152 -109 117 -160 254 -160 431 0 220 99
447 280 637 181 190 554 371 930 450 213 45 421 68 434 47z m3822 -6 c253 -33
496 -99 705 -190 331 -145 535 -327 660 -588 58 -121 81 -221 82 -352 1 -187
-52 -324 -175 -446 -114 -115 -245 -164 -428 -163 -394 3 -750 282 -929 729
-96 240 -137 492 -128 790 3 105 9 200 13 213 8 27 35 28 200 7z m-1915 -761
c270 -308 456 -642 536 -962 24 -93 27 -127 27 -262 0 -172 -16 -261 -73 -398
-136 -329 -453 -507 -738 -417 -242 76 -417 289 -485 588 -27 118 -29 335 -4
447 60 269 218 587 425 855 83 108 203 243 217 244 6 1 49 -42 95 -95z"/>
</g>
</svg>
