<?xml version="1.0" encoding="UTF-8" standalone="no"?>
<!-- Created with Inkscape (http://www.inkscape.org/) -->

<svg
   xmlns:dc="http://purl.org/dc/elements/1.1/"
   xmlns:cc="http://creativecommons.org/ns#"
   xmlns:rdf="http://www.w3.org/1999/02/22-rdf-syntax-ns#"
   xmlns:svg="http://www.w3.org/2000/svg"
   xmlns="http://www.w3.org/2000/svg"
   xmlns:sodipodi="http://sodipodi.sourceforge.net/DTD/sodipodi-0.dtd"
   xmlns:inkscape="http://www.inkscape.org/namespaces/inkscape"
   width="145.88051mm"
   height="26.931681mm"
   viewBox="0 0 145.88051 26.931681"
   version="1.1"
   id="svg20909"
   inkscape:version="0.92.0 r15299"
   sodipodi:docname="vinmonopolet.svg">
  <defs
     id="defs20903" />
  <sodipodi:namedview
     id="base"
     pagecolor="#ffffff"
     bordercolor="#666666"
     borderopacity="1.0"
     inkscape:pageopacity="0.0"
     inkscape:pageshadow="2"
     inkscape:zoom="1.4646265"
     inkscape:cx="273.78994"
     inkscape:cy="49.00475"
     inkscape:document-units="mm"
     inkscape:current-layer="layer1"
     showgrid="false"
     fit-margin-top="0"
     fit-margin-left="0"
     fit-margin-right="0"
     fit-margin-bottom="0"
     units="mm"
     inkscape:window-width="1280"
     inkscape:window-height="744"
     inkscape:window-x="-4"
     inkscape:window-y="-4"
     inkscape:window-maximized="1" />
  <metadata
     id="metadata20906">
    <rdf:RDF>
      <cc:Work
         rdf:about="">
        <dc:format>image/svg+xml</dc:format>
        <dc:type
           rdf:resource="http://purl.org/dc/dcmitype/StillImage" />
        <dc:title></dc:title>
      </cc:Work>
    </rdf:RDF>
  </metadata>
  <g
     inkscape:label="Layer 1"
     inkscape:groupmode="layer"
     id="layer1"
     transform="translate(-15.250222,-143.93892)">
    <g
       id="g20939"
       transform="translate(0.5000004,-0.4999983)">
      <path
         d="m 38.043081,160.89438 c -1.128219,-0.016 -2.427429,-0.5588 -3.651109,-1.22523 1.375269,-1.65351 2.976139,-2.1566 4.222856,-2.07257 1.090436,0.0772 1.757116,0.77999 1.826154,1.43856 0.108585,1.03794 -0.65786,1.8839 -2.397901,1.85924 z m -4.912431,-0.0346 c -0.330341,0.59479 -0.54363,1.20717 -0.66534,1.80799 -0.753779,0 -1.537194,0.12418 -2.286846,0.41977 -0.822007,0.32315 -1.541462,0.73875 -2.13928,1.23829 -0.597922,-0.49954 -1.315472,-0.91514 -2.138574,-1.23829 -0.752404,-0.29559 -1.532078,-0.41977 -2.287658,-0.41977 -0.12005,-0.60082 -0.333375,-1.2132 -0.66354,-1.80799 -0.221579,-0.39863 -0.453354,-0.75706 -0.6882,-1.07417 0.737412,-0.42372 1.445297,-0.87849 2.06929,-1.28062 l 0.169334,-0.10968 c 0.115217,-0.0724 0.224895,-0.14827 0.338172,-0.222 l 3.198566,4.37515 0.0026,-0.002 0.0018,0.005 3.202023,-4.37871 c 0.110772,0.0737 0.224049,0.14965 0.335562,0.222 l 0.170991,0.10968 c 0.622195,0.40213 1.326939,0.8569 2.069148,1.28062 -0.236361,0.31711 -0.46482,0.67554 -0.688058,1.07417 z m 3.117251,3.41839 c 0.909073,0.85728 1.1563,2.17096 0.376202,2.94954 -0.73272,0.7345 -2.177697,0.49142 -3.012264,-0.55312 -0.691338,-0.86293 -1.027994,-2.21122 -0.827899,-3.62233 1.515534,0.073 2.854608,0.65469 3.463961,1.22591 z m -6.480775,3.78215 c 0.09289,1.24699 -0.611858,2.38305 -1.713302,2.43417 l -0.01725,-0.005 -0.01062,0.005 c -1.10049,-0.0511 -1.806575,-1.18718 -1.713018,-2.43417 0.06601,-0.82559 0.606072,-2.06938 1.69665,-3.2096 l 0.0248,-0.026 0.0048,-0.002 0.0018,0.002 0.02783,0.026 c 1.090577,1.14022 1.632303,2.38401 1.69831,3.2096 z m -7.298938,-1.38573 c -0.836189,1.04454 -2.280074,1.28762 -3.012229,0.55312 -0.780116,-0.77858 -0.535375,-2.09226 0.376203,-2.94954 0.609212,-0.57122 1.946204,-1.15288 3.463678,-1.22591 0.200519,1.41111 -0.137936,2.7594 -0.827652,3.62233 z m 0.780133,-13.32153 c 0.290618,-0.17293 0.584412,-0.36174 0.87697,-0.56843 0.27933,-0.19858 0.532201,-0.4046 0.762212,-0.61129 1.251232,1.67844 2.657404,2.99614 2.874997,3.19648 -0.36202,0.33129 -1.048844,0.93624 -1.885597,1.58119 z m -0.0164,-5.81946 c 0,-1.40765 0.716562,-2.21505 1.724625,-2.21505 1.047573,0 1.719086,0.95885 1.719086,2.21505 0,1.04098 -0.336233,2.63412 -1.741982,4.06922 -0.944633,-1.33875 -1.701729,-2.80775 -1.701729,-4.06922 z m 4.874541,12.28866 -0.06727,0.0956 -0.06421,-0.0956 -1.873709,-2.56395 c 0.870233,-0.67179 1.576599,-1.29716 1.937914,-1.62955 0.363009,0.33239 1.069376,0.95776 1.940701,1.62955 z m 3.084444,-7.64892 c 0.230292,0.20669 0.483163,0.41271 0.763587,0.61129 0.290901,0.20669 0.584976,0.3955 0.875877,0.56843 l -2.628055,3.59795 c -0.837565,-0.64495 -1.522448,-1.2499 -1.884045,-1.58119 0.215089,-0.20034 1.622638,-1.51804 2.872636,-3.19648 z m -1.788409,-4.63974 c 0,-1.2562 0.675253,-2.21505 1.720886,-2.21505 1.009015,0 1.723109,0.8074 1.723109,2.21505 0,1.26147 -0.755298,2.73047 -1.701342,4.06922 -1.404339,-1.4351 -1.742653,-3.02824 -1.742653,-4.06922 z m -11.367301,13.36079 c -1.737567,0.0247 -2.504583,-0.8213 -2.396271,-1.85924 0.0689,-0.65857 0.734082,-1.36137 1.826042,-1.43856 1.245329,-0.084 2.846624,0.41906 4.222845,2.07257 -1.225056,0.66643 -2.522502,1.20925 -3.652616,1.22523 z m 0,-6.47139 c -1.107665,-0.17709 -1.883776,-0.91447 -1.829484,-1.92087 0.1068,-1.03297 1.191317,-1.4683 2.302429,-1.28983 1.438818,0.2286 2.897308,2.25503 3.101002,2.54607 -1.450235,0.60963 -2.757594,0.79484 -3.573947,0.66463 z m 19.533156,-3.2107 c 1.115236,-0.17847 2.201122,0.25686 2.306144,1.28983 0.05415,1.0064 -0.72129,1.74378 -1.831411,1.92087 -0.812766,0.13021 -2.122205,-0.055 -3.572157,-0.66463 0.203516,-0.29104 1.660525,-2.31747 3.097424,-2.54607 z m 3.248837,7.78521 c -0.08626,-0.81467 -0.859896,-1.68671 -2.177698,-1.77698 -0.673735,-0.0463 -2.750996,0.0215 -4.58403,2.26342 -0.829734,-0.47127 -1.614523,-0.9839 -2.271571,-1.40614 -0.106787,-0.0692 -0.213184,-0.14015 -0.316831,-0.21029 l 2.776891,-3.79525 c 1.557056,0.66297 2.977798,0.8654 3.860871,0.72429 0.774453,-0.12348 1.40836,-0.48782 1.786079,-1.02662 0.32258,-0.46179 0.425238,-1.01494 0.32258,-1.60472 -0.196074,-1.1183 -1.432737,-1.97061 -3.071107,-1.8645 -2.052426,0.13159 -3.197155,1.52121 -4.078993,2.69392 l -0.02632,0.043 c -0.287443,-0.16965 -0.576544,-0.35637 -0.864693,-0.56017 -0.27672,-0.19872 -0.52892,-0.40252 -0.756427,-0.61144 0.980476,-1.37086 1.809786,-2.9428 1.809786,-4.33243 0,-1.57522 -0.824054,-2.59468 -2.102344,-2.59468 -1.234865,0 -2.098606,1.06716 -2.098606,2.59468 0,0.80963 0.206835,2.6821 1.898509,4.37861 -1.013388,1.36631 -2.184328,2.56053 -2.884098,3.1991 v 0 c -0.699629,-0.63857 -1.870816,-1.83279 -2.880925,-3.1991 1.688253,-1.69651 1.897027,-3.56898 1.897027,-4.37861 0,-1.52752 -0.864024,-2.59468 -2.098745,-2.59468 -1.27815,0 -2.100827,1.01946 -2.100827,2.59468 0,1.38963 0.829557,2.96157 1.80661,4.33243 -0.225038,0.20892 -0.479707,0.41272 -0.755297,0.61144 -0.287761,0.2038 -0.578238,0.39052 -0.86667,0.56017 l -0.02699,-0.043 c -0.881945,-1.17271 -2.02505,-2.56233 -4.078182,-2.69392 -1.637245,-0.10611 -2.872518,0.7462 -3.071096,1.8645 -0.101974,0.58978 0,1.14293 0.324806,1.60472 0.37648,0.5388 1.010376,0.90314 1.785662,1.02662 0.883581,0.14111 2.30256,-0.0613 3.861414,-0.72429 l 2.779078,3.79525 c -0.107068,0.0701 -0.213889,0.14111 -0.320816,0.21029 -0.655814,0.42224 -1.440992,0.93487 -2.271149,1.40614 -1.832787,-2.2419 -3.910863,-2.30971 -4.58252,-2.26342 -1.316302,0.0903 -2.092274,0.96231 -2.17785,1.77698 -0.06063,0.57326 0.100183,1.08934 0.464952,1.48829 0.338169,0.36933 1.013269,0.80476 2.313312,0.78673 1.229487,-0.0183 2.597454,-0.59517 3.885939,-1.30072 0.238937,0.32039 0.470606,0.67454 0.690669,1.07071 0.296545,0.53414 0.494312,1.08726 0.610728,1.63587 -1.568203,0.0853 -2.967602,0.67829 -3.654285,1.32528 -0.600956,0.56307 -0.952486,1.30457 -0.96213,2.02999 -0.0099,0.57009 0.188807,1.07555 0.57464,1.4636 0.374403,0.37262 0.908544,0.56169 1.499447,0.53055 0.777064,-0.0462 1.552222,-0.46179 2.079308,-1.1169 0.704744,-0.8854 1.115412,-2.32544 0.908402,-3.86457 0.688058,0.006 1.400246,0.12305 2.087457,0.3926 0.798159,0.31362 1.458524,0.70485 1.989066,1.13951 -0.0035,0 -0.0067,0.005 -0.01005,0.007 l -0.0033,0.005 c -1.231688,1.28545 -1.737713,2.62079 -1.801354,3.44056 -0.06121,0.82311 0.180516,1.60487 0.6616,2.15126 0.377578,0.42719 0.865399,0.66504 1.409312,0.68833 l 0.03457,-0.002 0.03101,0.002 c 0.543772,-0.0233 1.032439,-0.26114 1.410829,-0.68833 0.479707,-0.54639 0.722524,-1.32815 0.658707,-2.15126 -0.06089,-0.81977 -0.568573,-2.15511 -1.798463,-3.44056 l -0.0058,-0.005 c -0.0032,-0.002 -0.0042,-0.007 -0.0074,-0.007 0.530543,-0.43466 1.192671,-0.82589 1.985891,-1.13951 0.689823,-0.26955 1.404057,-0.38668 2.089081,-0.3926 -0.205317,1.53913 0.20507,2.97917 0.910342,3.86457 0.525322,0.65511 1.30348,1.07073 2.077121,1.1169 0.592985,0.0311 1.124339,-0.15793 1.500117,-0.53055 0.386962,-0.38805 0.585963,-0.89351 0.577674,-1.4636 -0.01238,-0.72542 -0.363784,-1.46692 -0.964212,-2.02999 -0.686647,-0.64699 -2.089221,-1.23998 -3.65425,-1.32528 0.116277,-0.54861 0.313338,-1.10173 0.609213,-1.63587 0.219922,-0.39617 0.451591,-0.75032 0.691233,-1.07071 1.287074,0.70555 2.660967,1.28238 3.887576,1.30072 1.29921,0.018 1.974603,-0.4174 2.311788,-0.78673 0.363961,-0.39895 0.524898,-0.91503 0.465773,-1.48829 v 0"
         style="fill:#231f20;fill-opacity:1;fill-rule:nonzero;stroke:none;stroke-width:0.03527778"
         id="path20804"
         inkscape:connector-curvature="0" />
      <path
         d="m 160.13073,154.76624 v -1.46625 h -7.5879 v 1.46625 h 2.9965 v 7.96012 h 1.60761 v -7.96012 z m -9.4488,7.96012 v -1.46625 h -4.14055 v -2.60985 h 3.74191 v -1.41457 h -3.74191 v -2.46945 h 4.14055 v -1.46625 h -5.74816 v 9.42637 z m -7.64611,0 v -1.46625 h -4.1409 v -7.96012 h -1.60761 v 9.42637 z m -21.11093,-6.26333 c 0,1.06825 -0.66886,1.82672 -2.12195,1.82672 -0.28328,0 -0.57891,-0.0254 -0.90065,-0.0515 v -3.44593 c 0.33479,-0.0514 0.69427,-0.0772 1.05481,-0.0772 1.31163,0 1.96779,0.82267 1.96779,1.7479 z m 1.67182,-0.0507 c 0,-1.7618 -1.32504,-3.17637 -3.90949,-3.17637 -0.77187,0 -1.55645,0.0511 -2.39183,0.15448 v 9.33595 h 1.6069 v -3.07386 c 0.30904,0.0135 0.63042,0.0395 0.9391,0.0395 2.40488,0 3.75532,-1.36345 3.75532,-3.27974 z m -64.64195,6.31406 v -9.42637 h -1.607254 v 9.42637 z m -3.418417,-9.42637 h -1.787525 l -2.635953,6.27631 -2.649223,-6.27631 h -1.838854 l 4.359312,9.55548 h 0.206023 l 4.34622,-9.55548 v 0"
         style="fill:#231f20;fill-opacity:1;fill-rule:nonzero;stroke:none;stroke-width:0.03527778"
         id="path20806"
         inkscape:connector-curvature="0" />
      <path
         d="m 88.682989,161.23612 c -1.842199,0 -3.154529,-1.49793 -3.154529,-3.30052 v -0.0269 c 0,-1.80234 1.28552,-3.27406 3.12843,-3.27406 1.842199,0 3.154188,1.49789 3.154188,3.30094 v 0.0265 c 0,1.80234 -1.285528,3.27406 -3.128089,3.27406 z m -0.02609,1.49726 c 2.849388,0 4.8641,-2.18694 4.8641,-4.79778 v -0.0269 c 0,-2.61123 -1.987902,-4.77132 -4.838002,-4.77132 -2.849729,0 -4.8641,2.18694 -4.8641,4.7982 v 0.0265 c 0,2.61122 1.98791,4.77132 4.838002,4.77132 v 0"
         style="fill:#231f20;fill-opacity:1;fill-rule:nonzero;stroke:none;stroke-width:0.03527778"
         id="path20808"
         inkscape:connector-curvature="0" />
      <path
         d="m 110.51006,161.23612 c -1.84256,0 -3.15489,-1.49793 -3.15489,-3.30052 v -0.0269 c 0,-1.80234 1.28552,-3.27406 3.12808,-3.27406 1.84256,0 3.15489,1.49789 3.15489,3.30094 v 0.0265 c 0,1.80234 -1.28587,3.27406 -3.12808,3.27406 z m -0.0268,1.49726 c 2.84974,0 4.86445,-2.18694 4.86445,-4.79778 v -0.0269 c 0,-2.61123 -1.98825,-4.77132 -4.83764,-4.77132 -2.85044,0 -4.8648,2.18694 -4.8648,4.7982 v 0.0265 c 0,2.61122 1.98825,4.77132 4.83799,4.77132 v 0"
         style="fill:#231f20;fill-opacity:1;fill-rule:nonzero;stroke:none;stroke-width:0.03527778"
         id="path20810"
         inkscape:connector-curvature="0" />
      <path
         d="m 130.13086,161.23612 c -1.84256,0 -3.15489,-1.49793 -3.15489,-3.30052 v -0.0269 c 0,-1.80234 1.28622,-3.27406 3.12808,-3.27406 1.84256,0 3.15489,1.49789 3.15489,3.30094 v 0.0265 c 0,1.80234 -1.28588,3.27406 -3.12808,3.27406 z m -0.0268,1.49726 c 2.84974,0 4.86445,-2.18694 4.86445,-4.79778 v -0.0269 c 0,-2.61123 -1.98826,-4.77132 -4.83764,-4.77132 -2.85009,0 -4.86481,2.18694 -4.86481,4.7982 v 0.0265 c 0,2.61122 1.98826,4.77132 4.838,4.77132 v 0"
         style="fill:#231f20;fill-opacity:1;fill-rule:nonzero;stroke:none;stroke-width:0.03527778"
         id="path20812"
         inkscape:connector-curvature="0" />
      <path
         d="m 68.037731,153.1374 v 5.99874 l -6.004983,-5.97119 -0.02787,-0.0275 h -0.248002 v 9.61926 h 1.605845 v -6.18381 l 6.003573,6.14398 0.02822,0.0289 h 0.248708 v -9.60836 h -1.605491 v 0"
         style="fill:#231f20;fill-opacity:1;fill-rule:nonzero;stroke:none;stroke-width:0.03527778"
         id="path20814"
         inkscape:connector-curvature="0" />
      <path
         d="m 102.01094,153.1374 v 5.99874 l -6.004631,-5.97119 -0.0279,-0.0275 H 95.73005 v 9.61926 h 1.605848 v -6.18381 l 6.003572,6.14398 0.0282,0.0289 h 0.24836 v -9.60836 h -1.60514 v 0"
         style="fill:#231f20;fill-opacity:1;fill-rule:nonzero;stroke:none;stroke-width:0.03527778"
         id="path20816"
         inkscape:connector-curvature="0" />
      <path
         d="m 81.556881,152.95399 -4.61786,5.39157 -4.673248,-5.39157 h -0.210254 v 9.71518 h 1.625952 v -5.7609 l 3.142544,3.76771 h 0.160514 l 3.156657,-3.76908 v 5.76227 h 1.625952 v -9.71518 h -0.210257 v 0"
         style="fill:#231f20;fill-opacity:1;fill-rule:nonzero;stroke:none;stroke-width:0.03527778"
         id="path20818"
         inkscape:connector-curvature="0" />
    </g>
  </g>
</svg>
